<?xml version="1.0" encoding="utf-8"?>
<svg fill="none" height="51" viewBox="0 0 334 51" width="334" xmlns="http://www.w3.org/2000/svg">
  <path d="M 45.598 1.605 L 5.08 1.605 C 3.21 1.605 1.695 3.117 1.695 4.985 L 1.695 45.619 C 1.695 47.487 3.21 48.998 5.08 48.998 L 45.598 48.998 C 47.467 48.998 48.982 47.487 48.982 45.619 L 48.982 4.985 C 48.965 3.117 47.467 1.605 45.598 1.605 Z M 31.391 37.282 C 27.265 41.425 20.668 41.612 16.325 37.826 C 16.308 37.809 16.274 37.791 16.256 37.757 C 15.986 37.485 15.986 37.061 16.24 36.79 L 30.903 22.085 C 31.172 21.83 31.592 21.83 31.862 22.102 C 35.7 26.466 35.531 33.122 31.391 37.282 Z M 34.438 13.797 L 19.775 28.503 C 19.506 28.758 19.085 28.758 18.815 28.486 C 14.977 24.138 15.128 17.483 19.285 13.322 C 23.411 9.179 30.009 9.009 34.354 12.778 C 34.37 12.795 34.403 12.814 34.421 12.846 C 34.69 13.101 34.69 13.526 34.438 13.797 Z" fill="black" style=""/>
</svg>